<svg width="70" height="70" viewBox="0 0 70 70" fill="none" xmlns="http://www.w3.org/2000/svg">
<mask id="mask0" mask-type="alpha" maskUnits="userSpaceOnUse" x="0" y="0" width="70" height="70">
<circle cx="35" cy="35" r="35" fill="#8D0C18"/>
</mask>
<g mask="url(#mask0)">
<circle cx="35" cy="35" r="35" fill="#8D0C18"/>
<circle opacity="0.1" cx="52" cy="57" r="40" fill="#272E33"/>
</g>
<path d="M25.6666 48.3333H44.3333C44.6869 48.3333 45.0261 48.1929 45.2761 47.9428C45.5262 47.6928 45.6666 47.3536 45.6666 47V23C45.6666 22.6464 45.5262 22.3072 45.2761 22.0572C45.0261 21.8071 44.6869 21.6667 44.3333 21.6667H25.6666C25.313 21.6667 24.9739 21.8071 24.7238 22.0572C24.4738 22.3072 24.3333 22.6464 24.3333 23V47C24.3333 47.3536 24.4738 47.6928 24.7238 47.9428C24.9739 48.1929 25.313 48.3333 25.6666 48.3333ZM31 36.3333V40.3333L24.3333 35L31 29.6667V33.6667H39V36.3333H31Z" fill="white"/>
</svg>
